{
  "accessors": [
    {
      "bufferView": 2,
      "componentType": 5126,
      "count": 4019,
      "max": [
        0.04917982220649719,
        0.04581700265407562,
        0.08536732196807861
      ],
      "min": [
        -0.04838135838508606,
        -0.05008470639586449,
        -2.2622070900979452e-05
      ],
      "type": "VEC3"
    },
    {
      "bufferView": 2,
      "byteOffset": 48228,
      "componentType": 5126,
      "count": 4019,
      "max": [
        0.9992225170135498,
        0.9998533129692078,
        0.9990385174751282
      ],
      "min": [
        -0.9996738433837891,
        -0.9996940493583679,
        -0.9999945163726807
      ],
      "type": "VEC3"
    },
    {
      "bufferView": 1,
      "componentType": 5126,
      "count": 4019,
      "max": [
        0.997160792350769,
        0.9954518675804138
      ],
      "min": [
        0.002817600965499878,
        0.002596797188743949
      ],
      "type": "VEC2"
    },
    {
      "bufferView": 1,
      "byteOffset": 32152,
      "componentType": 5126,
      "count": 4019,
      "max": [
        0.997160792350769,
        0.9954518675804138
      ],
      "min": [
        0.002817600965499878,
        0.002596797188743949
      ],
      "type": "VEC2"
    },
    {
      "bufferView": 1,
      "byteOffset": 64304,
      "componentType": 5126,
      "count": 4019,
      "max": [
        0.997160792350769,
        0.9954518675804138
      ],
      "min": [
        0.002817600965499878,
        0.002596797188743949
      ],
      "type": "VEC2"
    },
    {
      "bufferView": 0,
      "componentType": 5125,
      "count": 21036,
      "type": "SCALAR"
    }
  ],
  "asset": {
    "extras": {
      "author": "Grand Dog Studio (https://sketchfab.com/GrandDogStudio)",
      "license": "CC-BY-4.0 (http://creativecommons.org/licenses/by/4.0/)",
      "source": "https://sketchfab.com/3d-models/realistic-3d-apple-60f8a7e073e4497dbf638b51f101cb43",
      "title": "Realistic 3D Apple"
    },
    "generator": "Sketchfab-12.65.0",
    "version": "2.0"
  },
  "bufferViews": [
    {
      "buffer": 0,
      "byteLength": 84144,
      "name": "floatBufferViews",
      "target": 34963
    },
    {
      "buffer": 0,
      "byteLength": 96456,
      "byteOffset": 84144,
      "byteStride": 8,
      "name": "floatBufferViews",
      "target": 34962
    },
    {
      "buffer": 0,
      "byteLength": 96456,
      "byteOffset": 180600,
      "byteStride": 12,
      "name": "floatBufferViews",
      "target": 34962
    }
  ],
  "buffers": [
    {
      "byteLength": 277056,
      "uri": "scene.bin"
    }
  ],
  "images": [
    {
      "uri": "textures/apple_baseColor.jpeg"
    },
    {
      "uri": "textures/apple_metallicRoughness.png"
    }
  ],
  "materials": [
    {
      "doubleSided": true,
      "name": "apple",
      "pbrMetallicRoughness": {
        "baseColorTexture": {
          "index": 0
        },
        "metallicFactor": 0.0,
        "metallicRoughnessTexture": {
          "index": 1
        }
      }
    }
  ],
  "meshes": [
    {
      "name": "apple_apple_0",
      "primitives": [
        {
          "attributes": {
            "NORMAL": 1,
            "POSITION": 0,
            "TEXCOORD_0": 2,
            "TEXCOORD_1": 3,
            "TEXCOORD_2": 4
          },
          "indices": 5,
          "material": 0,
          "mode": 4
        }
      ]
    }
  ],
  "nodes": [
    {
      "children": [
        1
      ],
      "matrix": [
        1.0,
        0.0,
        0.0,
        0.0,
        0.0,
        2.220446049250313e-16,
        -1.0,
        0.0,
        0.0,
        1.0,
        2.220446049250313e-16,
        0.0,
        0.0,
        0.0,
        0.0,
        1.0
      ],
      "name": "Sketchfab_model"
    },
    {
      "children": [
        2
      ],
      "matrix": [
        0.009999999776482582,
        0.0,
        0.0,
        0.0,
        0.0,
        0.0,
        0.009999999776482582,
        0.0,
        0.0,
        -0.009999999776482582,
        0.0,
        0.0,
        0.0,
        0.0,
        0.0,
        1.0
      ],
      "name": "bf1231872b1a4e54b33eea46009eb78b.fbx"
    },
    {
      "children": [
        3
      ],
      "name": "RootNode"
    },
    {
      "children": [
        4
      ],
      "matrix": [
        100.0,
        0.0,
        0.0,
        0.0,
        0.0,
        -1.629206793918314e-05,
        -99.99999999999868,
        0.0,
        0.0,
        99.99999999999868,
        -1.629206793918314e-05,
        0.0,
        0.0,
        0.0,
        0.0,
        1.0
      ],
      "name": "apple"
    },
    {
      "mesh": 0,
      "name": "apple_apple_0"
    }
  ],
  "samplers": [
    {
      "magFilter": 9729,
      "minFilter": 9987,
      "wrapS": 10497,
      "wrapT": 10497
    }
  ],
  "scene": 0,
  "scenes": [
    {
      "name": "Sketchfab_Scene",
      "nodes": [
        0
      ]
    }
  ],
  "textures": [
    {
      "sampler": 0,
      "source": 0
    },
    {
      "sampler": 0,
      "source": 1
    }
  ]
}
